<svg xmlns="http://www.w3.org/2000/svg" width="40" height="40" viewBox="0 0 40 40">
  <g fill="none" fill-rule="evenodd">
    <circle cx="20" cy="20" r="20" fill="#F7931A"/>
    <path fill="#FFF" fill-rule="nonzero" d="M28.986 17.525c.393-2.62-1.604-4.029-4.331-4.969l.885-3.55-2.16-.538-.863 3.456c-.568-.142-1.15-.275-1.731-.408l.869-3.479L18.995 7.5l-.885 3.549c-.47-.107-.932-.213-1.38-.325l.003-.011-2.98-.744-.575 2.308s1.604.368 1.57.39c.875.219 1.033.798 1.006 1.258l-1.008 4.044c.046.011.106.028.172.053l-.175-.044-1.413 5.665c-.108.265-.379.664-.991.513.022.031-1.57-.391-1.57-.391l-1.073 2.473 2.813.701c.523.131 1.035.269 1.539.398l-.894 3.59 2.159.538.885-3.55c.884.238 1.723.446 2.556.643l-.883 3.535 2.16.538.894-3.583c3.685.698 6.455.417 7.621-2.916.94-2.683-.046-4.231-1.985-5.24 1.413-.325 2.475-1.254 2.759-3.173zm-4.938 6.923c-.666 2.684-5.185 1.233-6.65.869l1.188-4.756c1.465.366 6.161 1.09 5.462 3.887zm.669-6.961c-.609 2.441-4.369 1.2-5.588.896l1.075-4.313c1.219.304 5.148.87 4.513 3.417z"/>
  </g>
</svg>
