<svg xmlns="http://www.w3.org/2000/svg" width="16" height="16" viewBox="0 0 16 16">
  <circle cx="8" cy="8" r="7.5" fill="#F7931A" stroke="#d4761a" stroke-width="1"/>
  <path fill="#FFF" d="M11.595 7.01c.157-1.048-.642-1.612-1.733-1.988l.354-1.42-.864-.215-.345 1.383c-.227-.057-.46-.11-.693-.163l.348-1.392L7.798 3l-.354 1.42c-.188-.043-.372-.085-.552-.13l.001-.005-1.192-.298-.23.923s.642.147.628.156c.35.088.413.319.403.503l-.403 1.618c.024.006.055.015.09.029l-.09-.023-.565 2.266c-.043.106-.152.266-.397.205.009.013-.628-.157-.628-.157l-.429.989 1.125.281c.209.052.414.107.616.159l-.358 1.436.864.215.354-1.42c.354.095.689.179.689.179l-.353 1.414.864.215.358-1.433c1.474.279 2.582.167 3.049-1.167.376-1.073-.019-1.693-.794-2.096.565-.13.99-.502 1.104-1.269zm-1.975 2.769c-.267 1.074-2.074.493-2.66.348l.475-1.903c.586.147 2.465.436 2.185 1.555zm.268-2.785c-.244.977-1.748.48-2.235.359l.43-1.725c.487.122 2.059.348 1.805 1.366z"/>
</svg>